<svg width="76" height="22" viewBox="0 0 76 22" fill="none" xmlns="http://www.w3.org/2000/svg">
<g clip-path="url(#clip0_1434_2262)">
<path d="M0 0.291016H9.80106C12.0256 0.481345 14.2205 1.37362 14.9155 3.6663C15.6401 6.062 14.5401 8.57993 12.2282 9.56125C14.2869 10.3156 15.8549 11.5833 16.2129 13.848C16.8258 17.7244 14.0808 20.541 10.297 20.7942L0 20.7924V0.291016ZM4.14533 8.26737H8.95943C9.88663 8.26737 10.8907 7.37509 11.0146 6.46535C11.2346 4.84669 10.29 3.64884 8.60845 3.64884H4.25184L4.14707 3.7536V8.26737H4.14533ZM9.52168 11.4872H4.14707V17.3647H9.73297C10.5886 17.3647 11.6607 16.4253 11.9314 15.6343C12.5879 13.7223 11.638 11.709 9.52343 11.4872H9.52168Z" fill="white"/>
<path d="M66.334 0.291016V20.7924H62.1188V18.8332C61.8324 18.9328 61.698 19.3291 61.4884 19.5701C59.4786 21.875 55.9934 21.4804 54.2612 19.0672C52.0488 15.9835 52.1065 9.01995 55.4206 6.6714C57.282 5.35132 59.889 5.50673 61.4151 7.25636C61.6386 7.51304 61.801 7.96179 62.1188 8.05958V0.291016H66.3357H66.334ZM59.4315 8.77549C56.5399 9.14742 56.7145 15.1314 57.8216 16.9911C58.8221 18.6743 60.9681 18.4404 61.7312 16.6628C62.5483 14.7595 62.7509 8.34944 59.4315 8.77549Z" fill="white"/>
<path d="M51.2265 20.7923H46.9397V10.752C46.9397 10.649 46.7773 10.188 46.7197 10.0605C46.0684 8.61645 43.8071 8.94647 43.1069 10.2246C43.0301 10.3643 42.7926 10.9126 42.7926 11.0314V20.7923H38.5059V6.09852H42.7926V8.26722C42.9934 8.10134 43.0755 7.84291 43.2484 7.63687C45.9688 4.38731 51.1828 5.55373 51.223 10.0518V20.7923H51.2265Z" fill="white"/>
<path d="M37.3847 17.8526V20.7914C35.4552 21.2279 33.2428 21.1825 32.361 19.1133C30.222 22.1673 24.4842 21.7186 23.6478 17.7828C23.0367 14.9069 24.4353 13.028 27.1436 12.2353C28.3868 11.8721 30.0963 11.8424 31.2016 11.3081C32.5583 10.6516 32.244 8.99273 30.8541 8.64699C29.4921 8.30824 28.0027 8.84256 27.498 10.2098C27.4387 10.3687 27.4299 10.8157 27.2972 10.8489L23.8242 10.0142C24.6309 7.45089 26.9078 5.98064 29.548 5.81476C33.0927 5.58951 35.9109 6.84673 36.1205 10.6812C36.2427 12.9041 36.0192 15.2212 36.1362 17.4528C36.3143 17.9679 36.9359 17.9434 37.3864 17.8526H37.3847ZM32.1131 13.2358C31.7551 13.3633 31.4548 13.5903 31.0951 13.7265C29.4415 14.3604 27.4404 14.0897 27.6115 16.5622C27.7722 18.8584 30.882 18.9527 31.797 17.2258C31.8948 17.0407 32.1113 16.5308 32.1113 16.3492V13.2358H32.1131Z" fill="white"/>
<path d="M21.9948 0.291016H17.708V20.7924H21.9948V0.291016Z" fill="white"/>
<path d="M71.5149 0.0198065C76.8459 -0.449904 77.2178 7.58931 71.9881 7.72202C67.0116 7.84774 66.5908 0.452848 71.5149 0.0198065ZM71.8257 0.679846C67.6525 0.760169 67.8393 7.33088 72.1662 7.02007C76.0269 6.74418 75.8419 0.60127 71.8257 0.679846Z" fill="white"/>
<path d="M72.6083 1.81445C73.9546 1.99431 74 3.83648 72.6746 4.08443L73.8253 5.87073H72.7846L71.6811 4.14729C71.5833 4.07745 71.2969 4.07046 71.2131 4.17174V5.86898H70.2842V1.81445H72.6083ZM71.2131 2.47624V3.42439L71.2795 3.49074H72.1211C72.177 3.49074 72.4686 3.36502 72.521 3.31438C72.6851 3.15723 72.6938 2.8307 72.5646 2.6526C72.5349 2.61069 72.3254 2.47624 72.2992 2.47624H71.2149H71.2131Z" fill="white"/>
</g>
<defs>
<clipPath id="clip0_1434_2262">
<rect width="75.716" height="21.1125" fill="white"/>
</clipPath>
</defs>
</svg>
