<svg width="60" height="29" viewBox="0 0 60 29" fill="none" xmlns="http://www.w3.org/2000/svg">
<g clip-path="url(#clip0_1434_2272)">
<path d="M21.8762 7.58035C25.6965 7.32129 29.0014 10.2601 29.2623 14.1482C29.523 18.0363 26.6413 21.4051 22.8219 21.677C19.8595 21.8879 17.0935 20.1572 15.9409 17.3715C14.7883 14.5857 15.5046 11.3623 17.7227 9.35259C18.8752 8.30837 20.3366 7.68478 21.8762 7.58035ZM22.5003 18.256C24.4586 18.1651 25.9751 16.4781 25.8904 14.4846C25.8058 12.4911 24.152 10.9435 22.1933 11.0249C20.228 11.1066 18.7014 12.7969 18.7863 14.7971C18.8713 16.7972 20.5354 18.3471 22.5003 18.256Z" fill="white"/>
<path d="M38.7475 25.2642L38.7579 25.2515C38.9706 24.9971 39.3305 24.9046 39.5953 24.6695C40.5882 23.7887 41.2096 22.1155 40.6223 20.8298C40.5714 20.8286 40.5942 20.8219 40.5535 20.8418C37.4136 22.3778 33.4305 21.5611 31.4389 18.5543C31.2565 18.2787 31.0775 18.0584 30.9283 17.7477C29.0982 13.939 30.932 9.458 34.8466 8.05758C36.1967 7.57466 37.0909 7.6456 38.5019 7.64643L41.1395 7.6481L42.9366 7.64507C43.2244 7.64446 43.6689 7.62869 43.94 7.65393C44.0098 7.70645 44.0958 7.76792 44.1622 7.82233C44.327 8.29594 44.2892 9.74267 44.25 10.2957C44.1957 10.3681 44.1276 10.4542 44.0771 10.5273C43.6747 10.6661 43.0278 10.6695 42.6122 10.5994C42.8552 11.0196 43.2094 11.3541 43.4568 11.7968C44.2488 13.2152 44.4177 14.7424 44.0257 16.3179C43.8629 16.9724 43.4937 17.8551 43.1047 18.3864C43.7235 18.9902 44.2043 20.6402 44.2546 21.4982C44.4405 24.6683 42.2874 27.7321 39.2838 28.5568C38.9354 28.6523 38.5552 28.7072 38.2114 28.7998H36.3168C35.383 28.6523 34.3618 28.3791 33.6003 27.8167C33.445 27.7021 33.2418 27.6199 33.0859 27.5011C32.485 27.0461 31.9357 26.5193 31.501 25.8894C30.801 24.8681 30.2338 23.4969 30.2805 22.2368C30.2895 21.9964 30.4849 21.8546 30.7109 21.861C31.5696 21.8855 32.4474 21.8319 33.3004 21.8812C33.4369 21.8891 33.5489 22.0048 33.6326 22.1034C33.6884 22.533 33.7579 23.003 33.9345 23.3792C34.5127 24.6096 35.7672 25.58 37.1472 25.5172C37.3467 25.508 37.5424 25.5386 37.7511 25.5062C38.0893 25.4536 38.4146 25.3467 38.7475 25.2642ZM37.3952 18.2409C39.3496 18.1266 40.8433 16.4221 40.7325 14.4328C40.622 12.4435 38.9484 10.9217 36.994 11.0329C35.0372 11.1442 33.5403 12.8498 33.6511 14.8413C33.762 16.8328 35.4387 18.3554 37.3952 18.2409Z" fill="white"/>
<path d="M0 6.94997C0.133731 6.48794 0.145526 6.01885 0.303026 5.55317C0.598336 4.66242 0.964107 3.76994 1.56307 3.04181C1.63105 2.95917 2.2064 2.23805 2.2064 2.23805C3.48093 1.17731 4.59296 0.520835 6.23012 0.185224C7.62464 -0.100617 8.79966 -0.0689147 10.1793 0.373552C10.5493 0.481172 10.9793 0.673142 11.3193 0.766162L11.3365 0.786784C11.5162 1.00017 11.7861 1.02635 12.0298 1.18286C12.2783 1.34234 12.4628 1.50487 12.686 1.68474C14.75 3.34789 15.8359 5.75055 15.6393 8.43891C15.5195 10.0783 14.9585 11.4135 13.9566 12.7126C13.7238 13.0144 13.4771 13.3318 13.2036 13.6035C13.1501 13.6567 13.0601 13.704 12.9966 13.7443C12.8499 13.8374 12.7279 13.9868 12.5955 14.102C12.3888 14.2818 12.1613 14.4474 11.9331 14.5975C11.8395 14.659 11.7149 14.6527 11.6178 14.7061C10.0904 15.545 8.44853 15.7397 6.72096 15.5702C6.72249 17.348 6.74296 19.1677 6.722 20.9429C6.58083 21.0848 6.52852 21.1216 6.36027 21.2306C5.81054 21.2432 5.26067 21.2479 4.71079 21.2448C4.39212 21.2454 4.05643 21.259 3.73914 21.2267C3.54497 21.2069 3.46343 21.1544 3.34347 20.9977C3.27918 20.0431 3.32361 18.5922 3.32364 17.6053L3.32422 9.49245C3.32436 9.10737 3.35461 8.51947 3.26348 8.16789C3.01894 7.95477 1.9589 8.12765 1.71252 8.09885C1.29045 8.04951 0.686575 8.04648 0.29292 7.99267C0.181536 7.90748 0.0899823 7.84495 0 7.73665V6.94997ZM6.74862 12.125C7.23987 12.2239 7.85708 12.2995 8.35812 12.213C8.77632 12.1429 9.37899 11.9922 9.74763 11.8148C11.7051 10.873 12.8179 8.62027 11.9919 6.50442C11.9477 6.39131 11.976 6.16293 11.9242 6.04192C11.027 4.14809 9.29381 3.2616 7.28172 3.40057C5.39307 3.80194 3.77812 4.99742 3.46222 7.04634C3.42576 7.28276 3.31477 7.63282 3.53972 7.80327C4.0889 8.23739 6.55938 7.58197 6.70218 8.34167L6.70636 8.36267C6.75393 8.60928 6.74704 9.09963 6.74697 9.36285L6.74184 11.0972C6.73979 11.3834 6.72007 11.8559 6.74862 12.125Z" fill="white"/>
<path d="M59.1137 15.4555C59.038 15.6964 59.0092 15.9591 58.9483 16.227C57.9068 20.8085 52.5833 23.0194 48.6363 20.6814C48.279 20.4235 47.7433 20.2265 47.4321 19.9121C45.5882 18.043 44.7782 15.791 45.2248 13.1606C45.2438 13.0211 45.3123 12.893 45.3512 12.7637C47.3807 6.01912 56.6377 5.93882 58.8414 12.5926C58.961 12.9527 58.9876 13.4128 59.1044 13.796L59.1137 13.8256V15.4555ZM52.434 18.2383C54.3963 18.0613 55.8433 16.295 55.6623 14.2986C55.481 12.3021 53.7405 10.8356 51.7797 11.0273C49.8293 11.2181 48.3973 12.9785 48.5778 14.9646C48.7578 16.9507 50.4823 18.4145 52.434 18.2383Z" fill="white"/>
</g>
<defs>
<clipPath id="clip0_1434_2272">
<rect width="59.1151" height="28.7997" fill="white"/>
</clipPath>
</defs>
</svg>
