<svg width="155" height="28" viewBox="0 0 155 28" fill="none" xmlns="http://www.w3.org/2000/svg">
<path d="M27.9389 3.33838C28.994 3.33838 29.8493 4.18427 29.8493 5.22774L29.8493 5.30863C29.8493 6.3521 28.994 7.19799 27.9389 7.19799L16.8345 7.19799C15.7794 7.19799 14.9241 6.3521 14.9241 5.30863V5.22774C14.9241 4.18427 15.7794 3.33838 16.8345 3.33838L27.9389 3.33838Z" fill="white"/>
<path d="M13.0137 18.7837C14.0688 18.7837 14.9241 19.6296 14.9241 20.673V20.7539C14.9241 21.7974 14.0688 22.6433 13.0137 22.6433H1.91042C0.855323 22.6433 -4.42633e-08 21.7974 0 20.7539L3.43249e-09 20.673C4.76958e-08 19.6296 0.855325 18.7837 1.91042 18.7837L13.0137 18.7837Z" fill="white"/>
<path d="M27.8982 9.13296H16.8765C15.7985 9.13296 14.9247 9.99714 14.9247 11.0632C14.9247 11.5782 14.7194 12.0462 14.3889 12.3916C14.0312 12.7621 13.5288 12.9934 12.9718 12.9934H1.95172C0.873813 12.9934 0 13.8575 0 14.9236C0 15.9896 0.873813 16.8538 1.95172 16.8538H12.9735C14.0514 16.8538 14.9252 15.9896 14.9252 14.9236C14.9252 14.4085 15.1305 13.9405 15.461 13.5951C15.8188 13.2247 16.3212 12.9934 16.8781 12.9934H27.8982C28.9761 12.9934 29.8499 12.1292 29.8499 11.0632C29.8499 9.99714 28.9761 9.13296 27.8982 9.13296Z" fill="white"/>
<path d="M41.7743 21.53C40.939 21.53 40.1455 21.4267 39.3937 21.2202C38.6628 20.993 37.9842 20.6832 37.3577 20.2908C36.7312 19.8778 36.1883 19.3925 35.7289 18.8348L37.5456 17.0381C38.0886 17.699 38.715 18.1946 39.4251 18.5251C40.1351 18.8349 40.9286 18.9897 41.8057 18.9897C42.6827 18.9897 43.3614 18.8452 43.8417 18.556C44.322 18.2463 44.5621 17.8229 44.5621 17.2859C44.5621 16.749 44.3638 16.3359 43.967 16.0468C43.5911 15.737 43.1004 15.4892 42.4948 15.3033C41.8892 15.0968 41.2418 14.9006 40.5527 14.7147C39.8845 14.5082 39.2476 14.2501 38.642 13.9403C38.0364 13.6305 37.5352 13.2071 37.1384 12.6702C36.7625 12.1332 36.5746 11.4207 36.5746 10.5326C36.5746 9.6446 36.7939 8.88047 37.2324 8.24025C37.6709 7.57938 38.2765 7.07339 39.0492 6.72231C39.8427 6.37122 40.7929 6.19568 41.8996 6.19568C43.069 6.19568 44.1027 6.4022 45.0007 6.81524C45.9195 7.20764 46.6713 7.80655 47.256 8.61199L45.4392 10.4087C45.0216 9.87177 44.4995 9.45873 43.873 9.1696C43.2674 8.88047 42.5783 8.7359 41.8057 8.7359C40.9912 8.7359 40.3648 8.88047 39.9262 9.1696C39.5086 9.43808 39.2998 9.82014 39.2998 10.3158C39.2998 10.8115 39.4877 11.1935 39.8636 11.462C40.2395 11.7305 40.7302 11.9577 41.3358 12.1435C41.9623 12.3294 42.6096 12.5256 43.2779 12.7321C43.9461 12.918 44.583 13.1761 45.1886 13.5066C45.7942 13.837 46.2849 14.281 46.6608 14.8386C47.0576 15.3963 47.256 16.1294 47.256 17.0381C47.256 18.4218 46.7548 19.5164 45.7524 20.3218C44.771 21.1273 43.4449 21.53 41.7743 21.53Z" fill="white"/>
<path d="M56.4262 21.53C55.0689 21.53 53.8368 21.1995 52.73 20.5387C51.6233 19.8571 50.7462 18.9381 50.0988 17.7816C49.4724 16.6251 49.1591 15.324 49.1591 13.8783C49.1591 12.4327 49.4724 11.1316 50.0988 9.97504C50.7462 8.81851 51.6128 7.89949 52.6987 7.21796C53.8055 6.53644 55.048 6.19568 56.4262 6.19568C57.5539 6.19568 58.5562 6.43318 59.4333 6.90818C60.3313 7.36253 61.0517 8.00275 61.5946 8.82884C62.1376 9.63427 62.4404 10.574 62.503 11.6479V16.0778C62.4404 17.131 62.1376 18.0707 61.5946 18.8968C61.0726 19.7229 60.3626 20.3734 59.4646 20.8484C58.5876 21.3028 57.5748 21.53 56.4262 21.53ZM56.8961 18.8968C58.2952 18.8968 59.4229 18.4321 60.2791 17.5028C61.1352 16.5528 61.5633 15.3446 61.5633 13.8783C61.5633 12.8664 61.3649 11.9886 60.9682 11.2451C60.5923 10.481 60.0493 9.89243 59.3393 9.47938C58.6293 9.04569 57.8045 8.82884 56.8648 8.82884C55.9251 8.82884 55.0898 9.04569 54.3589 9.47938C53.6489 9.91308 53.085 10.512 52.6674 11.2761C52.2706 12.0196 52.0722 12.8767 52.0722 13.8473C52.0722 14.8386 52.2706 15.7164 52.6674 16.4805C53.085 17.224 53.6593 17.8126 54.3902 18.2463C55.1211 18.68 55.9564 18.8968 56.8961 18.8968ZM61.3754 21.2202V17.255L61.9079 13.6615L61.3754 10.0989V6.50546H64.2258V21.2202H61.3754Z" fill="white"/>
<path d="M68.0483 21.2202V6.50546H70.8674V21.2202H68.0483ZM69.4579 3.56251C68.9358 3.56251 68.5077 3.39729 68.1736 3.06686C67.8395 2.71577 67.6724 2.28207 67.6724 1.76577C67.6724 1.27011 67.8395 0.857069 68.1736 0.526633C68.5077 0.175544 68.9358 0 69.4579 0C69.9799 0 70.408 0.175544 70.7421 0.526633C71.0763 0.857069 71.2433 1.27011 71.2433 1.76577C71.2433 2.28207 71.0763 2.71577 70.7421 3.06686C70.408 3.39729 69.9799 3.56251 69.4579 3.56251Z" fill="white"/>
<path d="M85.2335 21.2202V12.6392C85.2335 11.524 84.8785 10.6049 84.1685 9.8821C83.4585 9.15927 82.5397 8.79786 81.412 8.79786C80.6603 8.79786 79.992 8.96308 79.4073 9.29351C78.8226 9.62395 78.3632 10.0783 78.0291 10.6566C77.6949 11.2348 77.5279 11.8957 77.5279 12.6392L76.3689 11.9886C76.3689 10.8734 76.6195 9.8821 77.1207 9.01471C77.6219 8.14731 78.3214 7.46579 79.2194 6.97013C80.1173 6.45383 81.1301 6.19568 82.2578 6.19568C83.3854 6.19568 84.3773 6.47448 85.2335 7.03209C86.1106 7.5897 86.7997 8.32286 87.3009 9.23155C87.8021 10.1196 88.0527 11.0696 88.0527 12.0816V21.2202H85.2335ZM74.7088 21.2202V6.50546H77.5279V21.2202H74.7088Z" fill="white"/>
<path d="M97.8837 21.53C96.5263 21.53 95.2942 21.1995 94.1874 20.5387C93.0807 19.8571 92.2036 18.9381 91.5563 17.7816C90.9298 16.6251 90.6165 15.324 90.6165 13.8783C90.6165 12.4327 90.9298 11.1316 91.5563 9.97504C92.2036 8.81851 93.0702 7.89949 94.1561 7.21796C95.2629 6.53644 96.5054 6.19568 97.8837 6.19568C99.0113 6.19568 100.014 6.43318 100.891 6.90818C101.789 7.36253 102.509 8.00275 103.052 8.82884C103.595 9.63427 103.898 10.574 103.96 11.6479V16.0778C103.898 17.131 103.595 18.0707 103.052 18.8968C102.53 19.7229 101.82 20.3734 100.922 20.8484C100.045 21.3028 99.0322 21.53 97.8837 21.53ZM98.3535 18.8968C99.7526 18.8968 100.88 18.4321 101.736 17.5028C102.593 16.5528 103.021 15.3446 103.021 13.8783C103.021 12.8664 102.822 11.9886 102.426 11.2451C102.05 10.481 101.507 9.89243 100.797 9.47938C100.087 9.04569 99.2619 8.82884 98.3222 8.82884C97.3825 8.82884 96.5472 9.04569 95.8163 9.47938C95.1063 9.91308 94.5424 10.512 94.1248 11.2761C93.728 12.0196 93.5296 12.8767 93.5296 13.8473C93.5296 14.8386 93.728 15.7164 94.1248 16.4805C94.5424 17.224 95.1167 17.8126 95.8476 18.2463C96.5785 18.68 97.4138 18.8968 98.3535 18.8968ZM102.833 21.2202V17.255L103.365 13.6615L102.833 10.0989V6.50546H105.683V21.2202H102.833Z" fill="white"/>
<path d="M117.305 21.53C116.178 21.53 115.154 21.3028 114.236 20.8484C113.338 20.3734 112.617 19.7229 112.074 18.8968C111.531 18.0707 111.229 17.131 111.166 16.0778V11.6479C111.229 10.574 111.531 9.63427 112.074 8.82884C112.638 8.00275 113.369 7.36253 114.267 6.90818C115.186 6.43318 116.199 6.19568 117.305 6.19568C118.663 6.19568 119.884 6.53644 120.97 7.21796C122.077 7.89949 122.944 8.81851 123.57 9.97504C124.197 11.1316 124.51 12.4327 124.51 13.8783C124.51 15.324 124.197 16.6251 123.57 17.7816C122.944 18.9381 122.077 19.8571 120.97 20.5387C119.884 21.1995 118.663 21.53 117.305 21.53ZM109.474 27.3849V6.50546H112.294V10.3778L111.761 13.9403L112.294 17.5338V27.3849H109.474ZM116.835 18.8968C117.775 18.8968 118.6 18.68 119.31 18.2463C120.02 17.8126 120.584 17.224 121.002 16.4805C121.419 15.7164 121.628 14.8386 121.628 13.8473C121.628 12.8767 121.419 12.0093 121.002 11.2451C120.584 10.481 120.02 9.89243 119.31 9.47938C118.6 9.04569 117.786 8.82884 116.867 8.82884C115.927 8.82884 115.102 9.04569 114.392 9.47938C113.682 9.89243 113.129 10.481 112.732 11.2451C112.335 12.0093 112.137 12.887 112.137 13.8783C112.137 14.849 112.325 15.7164 112.701 16.4805C113.098 17.224 113.651 17.8126 114.361 18.2463C115.092 18.68 115.917 18.8968 116.835 18.8968Z" fill="white"/>
<path d="M132.122 21.53C131.287 21.53 130.494 21.4267 129.742 21.2202C129.011 20.993 128.332 20.6832 127.706 20.2908C127.079 19.8778 126.536 19.3925 126.077 18.8348L127.894 17.0381C128.437 17.699 129.063 18.1946 129.773 18.5251C130.483 18.8349 131.277 18.9897 132.154 18.9897C133.031 18.9897 133.709 18.8452 134.19 18.556C134.67 18.2463 134.91 17.8229 134.91 17.2859C134.91 16.749 134.712 16.3359 134.315 16.0468C133.939 15.737 133.448 15.4892 132.843 15.3033C132.237 15.0968 131.59 14.9006 130.901 14.7147C130.233 14.5082 129.596 14.2501 128.99 13.9403C128.384 13.6305 127.883 13.2071 127.487 12.6702C127.111 12.1332 126.923 11.4207 126.923 10.5326C126.923 9.6446 127.142 8.88047 127.58 8.24025C128.019 7.57938 128.625 7.07339 129.397 6.72231C130.191 6.37122 131.141 6.19568 132.248 6.19568C133.417 6.19568 134.451 6.4022 135.349 6.81524C136.268 7.20764 137.019 7.80655 137.604 8.61199L135.787 10.4087C135.37 9.87177 134.848 9.45873 134.221 9.1696C133.615 8.88047 132.926 8.7359 132.154 8.7359C131.339 8.7359 130.713 8.88047 130.274 9.1696C129.857 9.43808 129.648 9.82014 129.648 10.3158C129.648 10.8115 129.836 11.1935 130.212 11.462C130.588 11.7305 131.078 11.9577 131.684 12.1435C132.31 12.3294 132.958 12.5256 133.626 12.7321C134.294 12.918 134.931 13.1761 135.537 13.5066C136.142 13.837 136.633 14.281 137.009 14.8386C137.406 15.3963 137.604 16.1294 137.604 17.0381C137.604 18.4218 137.103 19.5164 136.101 20.3218C135.119 21.1273 133.793 21.53 132.122 21.53Z" fill="white"/>
<path d="M147.338 21.53C145.855 21.53 144.519 21.1995 143.329 20.5387C142.138 19.8571 141.199 18.9381 140.51 17.7816C139.82 16.6251 139.476 15.3136 139.476 13.8473C139.476 12.4017 139.81 11.1006 140.478 9.94406C141.167 8.78753 142.086 7.87883 143.235 7.21796C144.404 6.53644 145.709 6.19568 147.15 6.19568C148.528 6.19568 149.74 6.50546 150.784 7.12503C151.849 7.74459 152.674 8.60166 153.258 9.69623C153.864 10.7908 154.167 12.0299 154.167 13.4136C154.167 13.6202 154.156 13.8473 154.135 14.0952C154.115 14.3223 154.073 14.5908 154.01 14.9006H141.449V12.5772H152.507L151.473 13.4756C151.473 12.4843 151.295 11.6479 150.94 10.9663C150.585 10.2642 150.084 9.72721 149.437 9.35547C148.789 8.96308 148.006 8.76688 147.088 8.76688C146.127 8.76688 145.281 8.9734 144.55 9.38645C143.819 9.79949 143.256 10.3778 142.859 11.1212C142.462 11.8647 142.264 12.7424 142.264 13.7544C142.264 14.787 142.473 15.6957 142.89 16.4805C143.308 17.2446 143.903 17.8435 144.676 18.2772C145.448 18.6903 146.336 18.8968 147.338 18.8968C148.173 18.8968 148.936 18.7522 149.625 18.4631C150.335 18.174 150.94 17.7403 151.442 17.162L153.258 18.9897C152.548 19.8158 151.671 20.4457 150.627 20.8794C149.604 21.3131 148.508 21.53 147.338 21.53Z" fill="white"/>
</svg>
