<svg width="151" height="31" viewBox="0 0 151 31" fill="none" xmlns="http://www.w3.org/2000/svg">
<g clip-path="url(#clip0_1434_2270)">
<path d="M26.4066 22.75C27.1017 22.75 28.4498 22.6025 29.2503 22.3077C29.5452 22.2023 29.6295 21.9285 29.5663 21.6336L29.4399 21.0437C29.3557 20.6857 29.1239 20.6014 28.7869 20.6857C28.2603 20.8121 27.7758 20.8753 27.2913 20.8753C26.4276 20.8753 26.0696 20.6225 26.0696 19.8852V14.1135C26.0696 13.9871 26.1538 13.9029 26.2802 13.9029H29.1239C29.4609 13.9029 29.6506 13.7132 29.6506 13.3762V12.6179C29.6506 12.2809 29.4609 12.0912 29.1239 12.0912H26.2802C26.1538 12.0912 26.0696 12.0071 26.0696 11.8807V8.63668C26.0696 8.29964 25.88 8.11007 25.543 8.11007H24.5319C24.1948 8.11007 24.0052 8.29964 24.0052 8.63668V11.9017C24.0052 12.0281 23.921 12.1123 23.7946 12.1123H21.5196C21.1825 12.1123 20.993 12.3019 20.993 12.6389V13.3973C20.993 13.7343 21.1825 13.9239 21.5196 13.9239H23.7946C23.921 13.9239 24.0052 14.0082 24.0052 14.1346V20.4118C24.0052 21.9916 24.8899 22.75 26.4066 22.75ZM32.7878 22.6447H33.7989C34.136 22.6447 34.3255 22.4551 34.3255 22.118V17.189C34.3255 14.7243 36.3689 13.7764 39.4654 13.7764C41.1084 13.7764 42.1195 14.0293 43.0042 14.3873C43.3834 14.5348 43.7625 14.4505 43.7625 14.0925V13.608C43.7625 13.2077 43.6573 12.8075 43.0885 12.5126C42.4776 12.1966 41.3401 11.9649 39.8445 11.9649C37.0218 11.9649 35.1461 12.6507 34.3246 13.8093C34.3246 13.3815 34.3046 12.6389 34.3046 12.6389C34.3046 12.3019 34.115 12.1123 33.778 12.1123H32.7668C32.4298 12.1123 32.2401 12.3019 32.2401 12.6389V22.1391C32.2612 22.4551 32.4508 22.6447 32.7878 22.6447ZM51.9568 22.7921C54.7794 22.7921 56.6542 22.1813 57.7495 21.3387C58.0233 21.128 58.0023 20.8964 57.8337 20.6225L57.6231 20.2433C57.4335 19.8852 57.1176 19.9273 56.7805 20.1169C55.6431 20.7278 54.1053 20.9805 52.1252 20.9805C49.0287 20.9805 47.154 20.3065 46.8169 18.0526H57.4335C58.3814 18.0526 58.7185 17.7367 58.7185 16.894C58.7185 14.1135 56.9912 11.9439 51.7882 11.9439C46.7538 11.9439 44.6894 13.9871 44.6894 17.3574C44.7105 20.7489 46.8169 22.7921 51.9568 22.7921ZM46.8169 16.4517C47.1118 14.4716 48.6285 13.7554 51.8725 13.7554C55.1165 13.7554 56.612 14.4295 56.7383 16.4517H46.8169ZM64.6376 22.7921H65.8383C68.0501 22.7921 70.4416 22.8821 71.3264 21.3233C71.4107 22.545 71.9049 22.6447 73.1478 22.6447H73.3374C74.0746 22.6447 74.6855 22.2445 74.6855 21.7178V21.423C74.6855 21.0859 74.4959 20.8964 74.1589 20.8964H73.8219C73.3585 20.8964 73.1267 20.6435 73.1267 20.1591V15.7565C73.1267 13.7764 72.0103 11.9649 66.8284 11.9649C64.3006 11.9649 62.7629 12.3862 62.0467 12.6389C61.3305 12.8918 61.0566 13.1445 61.0566 13.5448V13.9871C61.0566 14.4295 61.4147 14.577 61.7518 14.4927C62.9314 14.2188 64.4481 13.8186 66.8073 13.8186C69.7563 13.8186 71.1045 14.4505 71.1045 15.7986V16.1989C71.1045 16.3253 71.0202 16.4095 70.8938 16.4095H64.6376C62.1099 16.4095 60.0666 17.0626 60.0666 19.5482C60.0666 21.9916 62.1099 22.7921 64.6376 22.7921ZM62.0888 19.4639C62.0888 18.2001 63.2052 17.9683 64.7851 17.9683H70.8938C71.0202 17.9683 71.1045 18.0526 71.1045 18.179V19.3165C71.1045 20.8121 68.8716 20.9805 65.733 20.9805H64.7851C63.2052 20.9805 62.0888 20.7278 62.0888 19.4639ZM76.5602 22.6447H77.5714C77.9084 22.6447 78.0979 22.4551 78.0979 22.118V17.189C78.0979 14.7243 79.1722 13.7975 81.9528 13.7975C84.6702 13.7975 85.8077 14.7243 85.8077 17.189V22.118C85.8077 22.4551 85.9972 22.6447 86.3343 22.6447H87.3454C87.6824 22.6447 87.872 22.4551 87.872 22.118V17.189C87.872 14.7243 88.9674 13.7975 91.7268 13.7975C94.2336 13.7975 95.5816 14.7243 95.5816 17.189V22.118C95.5816 22.4551 95.7713 22.6447 96.1083 22.6447H97.1193C97.456 22.6447 97.6457 22.4551 97.6457 22.118V17.189C97.6457 13.7764 96.0872 11.9649 92.5273 11.9649C89.9153 11.9649 88.3354 12.7864 87.5349 14.1135C87.4507 14.2609 87.3454 14.1977 87.24 13.9871C86.5027 12.6389 85.0704 11.9439 82.7533 11.9439C80.5204 11.9439 79.1933 12.5758 78.435 13.608C78.2454 13.8396 78.0979 13.7975 78.0979 13.5026V12.6179C78.0979 12.2809 77.9084 12.0912 77.5714 12.0912H76.5602C76.2232 12.0912 76.0336 12.2809 76.0336 12.6179V22.118C76.0547 22.4551 76.2443 22.6447 76.5602 22.6447ZM100.132 22.6447H101.143C101.48 22.6447 101.669 22.4551 101.669 22.118V8.63668C101.669 8.29964 101.48 8.11007 101.143 8.11007H100.132C99.7949 8.11007 99.6052 8.29964 99.6052 8.63668V22.118C99.6265 22.4551 99.8152 22.6447 100.132 22.6447ZM104.261 22.6447H105.272C105.609 22.6447 105.798 22.4551 105.798 22.118V12.6179C105.798 12.2809 105.609 12.0912 105.272 12.0912H104.261C103.923 12.0912 103.733 12.2809 103.733 12.6179V22.118C103.733 22.4551 103.923 22.6447 104.261 22.6447ZM103.545 9.20543C103.545 9.66885 103.903 10.0058 104.766 10.0058C105.65 10.0058 106.008 9.64778 106.008 9.20543V8.69988C106.008 8.23645 105.65 7.89942 104.766 7.89942C103.903 7.89942 103.545 8.25752 103.545 8.69988V9.20543ZM108.389 22.6447H109.4C109.738 22.6447 109.926 22.4551 109.926 22.118V17.189C109.926 14.7243 111.654 13.7975 115.109 13.7975C118.564 13.7975 120.017 14.7243 120.017 17.189V22.118C120.017 22.4551 120.207 22.6447 120.543 22.6447H121.555C121.891 22.6447 122.081 22.4551 122.081 22.118V17.189C122.081 13.7764 120.438 11.9649 115.909 11.9649C112.729 11.9649 110.98 12.8496 110.18 14.0293C110.032 14.282 109.926 14.1766 109.926 13.9871V12.6179C109.926 12.2809 109.738 12.0912 109.4 12.0912H108.389C108.052 12.0912 107.862 12.2809 107.862 12.6179V22.118C107.862 22.4551 108.052 22.6447 108.389 22.6447ZM130.886 22.7921C133.708 22.7921 135.584 22.1813 136.679 21.3387C136.953 21.128 136.932 20.8964 136.763 20.6225L136.552 20.2433C136.363 19.8852 136.047 19.9273 135.71 20.1169C134.573 20.7278 133.035 20.9805 131.054 20.9805C127.958 20.9805 126.083 20.3065 125.746 18.0526H136.363C137.311 18.0526 137.648 17.7367 137.648 16.894C137.648 14.1135 135.92 11.9439 130.717 11.9439C125.683 11.9439 123.619 13.9871 123.619 17.3574C123.619 20.7489 125.746 22.7921 130.886 22.7921ZM125.746 16.4517C126.042 14.4716 127.558 13.7554 130.802 13.7554C134.046 13.7554 135.541 14.4295 135.668 16.4517H125.746Z" fill="white"/>
<path d="M15.7421 18.5838H5.18696C2.33299 18.5838 0 16.2281 0 13.3515C0 10.4749 2.33299 8.11926 5.18696 8.11926H19.8404C20.4293 8.11926 20.929 8.59492 20.929 9.18384C20.929 9.7727 20.4293 10.2484 19.8404 10.2484H5.18696C3.48818 10.2484 2.12915 11.6301 2.12915 13.3515C2.12915 15.073 3.51082 16.4547 5.18696 16.4547H15.7421C16.331 16.4547 16.8067 16.9303 16.8067 17.5192C16.8067 18.1081 16.331 18.5838 15.7421 18.5838ZM15.7421 22.7288H1.08863C0.499726 22.7288 0 22.2532 0 21.6643C0 21.0753 0.499726 20.5996 1.08863 20.5996H15.7421C17.4409 20.5996 18.7999 19.218 18.7999 17.4966C18.7999 15.7751 17.4182 14.3935 15.7421 14.3935H5.18696C4.59804 14.3935 4.12239 13.9178 4.12239 13.3288C4.12239 12.7399 4.59804 12.2643 5.18696 12.2643H15.7421C18.5961 12.2643 20.929 14.62 20.929 17.4966C20.929 20.3958 18.6187 22.7288 15.7421 22.7288Z" fill="white"/>
<path d="M142.034 5.28716L141.255 7.16191H142.856L142.034 5.28716Z" fill="white"/>
<path d="M143.272 0C139.502 0 136.425 3.05437 136.425 6.84602C136.425 10.6166 139.48 13.6921 143.272 13.6921C147.043 13.6921 150.118 10.6377 150.118 6.84602C150.118 3.07544 147.064 0 143.272 0ZM144.515 8.97355C144.43 9.09993 144.304 9.16313 144.114 9.16313C143.946 9.16313 143.819 9.121 143.735 9.0578C143.651 8.97355 143.567 8.86823 143.504 8.69971L143.209 8.02564H140.871L140.576 8.69971C140.512 8.86823 140.428 8.99461 140.343 9.0578C140.259 9.121 140.154 9.16313 140.007 9.16313C139.817 9.16313 139.67 9.09993 139.586 8.97355C139.502 8.84716 139.502 8.67865 139.586 8.48906L141.397 4.5289C141.481 4.36038 141.566 4.25506 141.671 4.19187C141.777 4.10761 141.902 4.08655 142.029 4.08655C142.176 4.08655 142.282 4.12868 142.387 4.19187C142.493 4.25506 142.577 4.38145 142.64 4.5289L144.472 8.48906C144.578 8.67865 144.599 8.84716 144.515 8.97355ZM146.158 8.59438C146.158 8.97355 145.968 9.16313 145.61 9.16313C145.421 9.16313 145.294 9.121 145.21 9.01568C145.126 8.91035 145.063 8.78396 145.063 8.59438V4.61316C145.063 4.234 145.251 4.04441 145.61 4.04441C145.968 4.04441 146.158 4.234 146.158 4.61316V8.59438Z" fill="white"/>
</g>
<defs>
<clipPath id="clip0_1434_2270">
<rect width="150.955" height="30.6132" fill="white"/>
</clipPath>
</defs>
</svg>
