<svg width="199" height="40" viewBox="0 0 199 40" fill="none" xmlns="http://www.w3.org/2000/svg">
<path d="M10.7422 8.45459L14.8178 15.515H25.1831L20.0024 24.4968L28.151 24.4934L33.3332 15.515L29.2576 8.45459H10.7422Z" fill="white"/>
<path d="M6.66406 15.5151H14.8152L19.9998 24.4969L15.9222 31.554L6.66406 15.5151Z" fill="white"/>
<path d="M182.974 26.9547C181.705 26.9547 180.629 26.8428 179.746 26.6189C178.875 26.3826 178.167 26.0654 177.619 25.6674C177.084 25.2694 176.686 24.8154 176.425 24.3054C176.164 23.7955 176.021 23.2669 175.996 22.7196H177.321C177.395 23.1425 177.538 23.5467 177.75 23.9323C177.974 24.3054 178.297 24.6413 178.72 24.9398C179.155 25.2258 179.721 25.4559 180.418 25.6301C181.114 25.7918 181.966 25.8726 182.974 25.8726C184.143 25.8726 185.113 25.7669 185.884 25.5554C186.668 25.344 187.252 25.0331 187.638 24.6226C188.024 24.1997 188.216 23.6835 188.216 23.0741C188.216 22.7009 188.117 22.3589 187.918 22.048C187.731 21.7246 187.408 21.4509 186.948 21.2271C186.5 20.9907 185.884 20.8228 185.101 20.7233L180.996 20.1636C180.399 20.089 179.827 19.977 179.28 19.8278C178.745 19.6785 178.266 19.4733 177.843 19.2121C177.42 18.9509 177.084 18.6151 176.836 18.2046C176.599 17.7942 176.481 17.2842 176.481 16.6748C176.481 16.1275 176.618 15.6362 176.892 15.2009C177.178 14.7531 177.588 14.3738 178.123 14.0628C178.67 13.7519 179.336 13.5156 180.119 13.3539C180.903 13.1922 181.798 13.1113 182.806 13.1113C183.963 13.1113 184.933 13.2171 185.716 13.4285C186.5 13.6399 187.128 13.926 187.601 14.2867C188.073 14.6474 188.415 15.0516 188.627 15.4994C188.851 15.9472 188.975 16.4074 189 16.88H187.657C187.594 16.3825 187.395 15.9347 187.06 15.5367C186.736 15.1263 186.226 14.8029 185.53 14.5666C184.846 14.3178 183.925 14.1934 182.769 14.1934C181.686 14.1934 180.778 14.2991 180.045 14.5106C179.323 14.7096 178.776 14.9957 178.403 15.3688C178.042 15.7295 177.862 16.1586 177.862 16.6561C177.862 17.1163 177.992 17.5019 178.254 17.8129C178.515 18.1238 178.9 18.3788 179.41 18.5778C179.933 18.7644 180.567 18.9136 181.313 19.0255L185.548 19.6039C186.332 19.7034 187.022 19.89 187.619 20.1636C188.229 20.4248 188.708 20.7855 189.056 21.2457C189.404 21.7059 189.578 22.2843 189.578 22.9808C189.578 23.6276 189.435 24.1997 189.149 24.6972C188.876 25.1947 188.459 25.6114 187.899 25.9472C187.339 26.2831 186.649 26.5318 185.828 26.6935C185.007 26.8676 184.056 26.9547 182.974 26.9547Z" fill="white"/>
<path d="M161.844 26.6935V13.3726H170.239C171.371 13.3726 172.267 13.6586 172.926 14.2308C173.598 14.8029 173.933 15.5741 173.933 16.5442C173.933 17.1537 173.809 17.6885 173.56 18.1487C173.324 18.6089 172.976 18.9758 172.515 19.2495C172.055 19.5107 171.502 19.6661 170.855 19.7159L170.911 19.6599C171.657 19.6724 172.31 19.8216 172.87 20.1077C173.442 20.3938 173.884 20.7855 174.195 21.2831C174.506 21.7681 174.661 22.3403 174.661 22.9995C174.661 23.7458 174.481 24.3988 174.12 24.9585C173.759 25.5057 173.249 25.9348 172.59 26.2458C171.943 26.5443 171.166 26.6935 170.258 26.6935H161.844ZM163.131 25.6301H170.09C170.737 25.6301 171.297 25.5182 171.769 25.2943C172.254 25.0704 172.627 24.7595 172.889 24.3614C173.162 23.951 173.299 23.4783 173.299 22.9435C173.299 22.3838 173.168 21.905 172.907 21.5069C172.658 21.1089 172.304 20.8042 171.844 20.5928C171.384 20.3689 170.83 20.2569 170.183 20.2569H163.131V25.6301ZM163.131 19.1935H170.071C170.594 19.1935 171.048 19.094 171.433 18.895C171.819 18.6835 172.117 18.3912 172.329 18.0181C172.54 17.6325 172.646 17.1848 172.646 16.6748C172.646 15.9534 172.404 15.3999 171.918 15.0144C171.446 14.6288 170.756 14.436 169.848 14.436H163.131V19.1935Z" fill="white"/>
<path d="M145.555 26.6935L152.364 13.3726H153.95L160.76 26.6935H159.323L152.794 13.7644H153.447L146.879 26.6935H145.555ZM148.409 23.0368V21.9734H157.831V23.0368H148.409Z" fill="white"/>
<path d="M134.227 26.6935V13.3726H135.514V25.6301H145.402V26.6935H134.227Z" fill="white"/>
<path d="M114.633 26.6935V13.3726H123.178C123.762 13.3726 124.303 13.4534 124.801 13.6151C125.311 13.7768 125.752 14.0193 126.125 14.3427C126.511 14.6661 126.81 15.0703 127.021 15.5554C127.232 16.028 127.338 16.5815 127.338 17.2159C127.338 17.8502 127.232 18.4037 127.021 18.8763C126.81 19.349 126.511 19.7408 126.125 20.0517C125.752 20.3627 125.311 20.599 124.801 20.7607C124.303 20.9099 123.762 20.9846 123.178 20.9846H115.92V26.6935H114.633ZM115.92 19.9211H122.972C123.619 19.9211 124.166 19.8154 124.614 19.6039C125.062 19.3801 125.398 19.0691 125.622 18.6711C125.858 18.2607 125.976 17.7756 125.976 17.2159C125.976 16.3701 125.715 15.6984 125.193 15.2009C124.683 14.691 123.943 14.436 122.972 14.436H115.92V19.9211Z" fill="white"/>
<path d="M105.964 26.9547C104.571 26.9547 103.377 26.7122 102.382 26.2271C101.399 25.742 100.647 25.0517 100.124 24.1562C99.6144 23.2482 99.3594 22.1786 99.3594 20.9472V13.3726H100.665V20.7607C100.665 21.7806 100.864 22.6761 101.262 23.4473C101.673 24.2184 102.27 24.8154 103.053 25.2383C103.849 25.6612 104.82 25.8726 105.964 25.8726C107.108 25.8726 108.066 25.6674 108.837 25.257C109.608 24.8341 110.187 24.2433 110.572 23.4846C110.958 22.7259 111.15 21.8303 111.15 20.798V13.3726H112.345V20.9286C112.345 22.1724 112.083 23.2482 111.561 24.1562C111.039 25.0517 110.299 25.742 109.341 26.2271C108.396 26.7122 107.27 26.9547 105.964 26.9547Z" fill="white"/>
<path d="M86.8203 26.6935V13.3726H88.1076V25.6301H97.9958V26.6935H86.8203Z" fill="white"/>
<path d="M73.0469 26.6935V13.3726H84.6887V14.436H74.3342V19.3054H83.9238V20.3502H74.3342V25.6301H84.6887V26.6935H73.0469Z" fill="white"/>
<path d="M57.1172 26.6935L64.1135 19.3614L63.9642 20.3129L57.4344 13.3726H59.1321L64.8225 19.3987L64.2814 19.3427L69.9531 13.3726H71.5389L64.9531 20.2942L64.8784 19.4174L71.7628 26.6935H70.0464L64.0762 20.3875L64.7851 20.3129L58.7217 26.6935H57.1172Z" fill="white"/>
<path d="M54.5586 26.6935V13.3726H55.8459V26.6935H54.5586Z" fill="white"/>
<path d="M40 26.6935V13.3726H48.5448C49.1294 13.3726 49.6705 13.4534 50.168 13.6151C50.6779 13.7768 51.1195 14.0193 51.4926 14.3427C51.8782 14.6661 52.1767 15.0703 52.3881 15.5554C52.5996 16.028 52.7053 16.5815 52.7053 17.2159C52.7053 17.8502 52.5996 18.4037 52.3881 18.8763C52.1767 19.349 51.8782 19.7408 51.4926 20.0517C51.1195 20.3627 50.6779 20.599 50.168 20.7607C49.6705 20.9099 49.1294 20.9846 48.5448 20.9846H41.2873V26.6935H40ZM41.2873 19.9211H48.3396C48.9864 19.9211 49.5336 19.8154 49.9814 19.6039C50.4292 19.3801 50.765 19.0691 50.9889 18.6711C51.2252 18.2607 51.3434 17.7756 51.3434 17.2159C51.3434 16.3701 51.0822 15.6984 50.5598 15.2009C50.0498 14.691 49.3098 14.436 48.3396 14.436H41.2873V19.9211Z" fill="white"/>
</svg>
