<svg xmlns="http://www.w3.org/2000/svg" width="330" height="330" fill="none"><path fill="#fff" d="M283.999 81.347c9.389 0 17 7.611 17 17v.728c0 9.389-7.611 17.001-17 17.001h-98.816c-9.389 0-17.001-7.612-17.001-17v-.729c0-9.389 7.612-17 17.001-17zM151.182 220.324c9.389 0 17 7.612 17 17.001v.728c0 9.389-7.611 17-17 17H52.376c-9.39 0-17.001-7.611-17.001-17v-.728c0-9.389 7.611-17.001 17-17.001zm132.455-86.837h-98.081c-9.592 0-17.368 7.776-17.368 17.368 0 4.634-1.827 8.845-4.768 11.953-3.184 3.333-7.655 5.415-12.611 5.415H52.743c-9.592 0-17.368 7.776-17.368 17.368s7.776 17.368 17.368 17.368h98.081c9.592 0 17.368-7.776 17.368-17.368 0-4.635 1.827-8.846 4.768-11.954 3.184-3.333 7.655-5.414 12.611-5.414h98.066c9.592 0 17.368-7.776 17.368-17.368s-7.776-17.368-17.368-17.368"/></svg>