<svg width="284" height="32" viewBox="0 0 284 32" fill="none" xmlns="http://www.w3.org/2000/svg">
<path d="M44.0925 0.000183242V31.4948H31.4946V12.5979L14.3158 29.7769H28.0588V31.4948H0L31.4946 0L44.0925 0.000183242Z" fill="white"/>
<path d="M57.5892 31.6509L71.4236 1.10164H75.7442L89.6222 31.6509H85.0398L72.6892 3.54558H74.4349L62.0843 31.6509H57.5892ZM63.4808 24.0136L64.6591 20.5222H81.854L83.1196 24.0136H63.4808Z" fill="white"/>
<path d="M108.132 32C104.117 32 100.96 30.8508 98.6615 28.5523C96.363 26.2538 95.2138 22.8934 95.2138 18.4711V1.10164H99.5779V18.2965C99.5779 21.7005 100.32 24.1881 101.804 25.7592C103.317 27.3303 105.44 28.1159 108.175 28.1159C110.939 28.1159 113.063 27.3303 114.547 25.7592C116.06 24.1881 116.816 21.7005 116.816 18.2965V1.10164H121.05V18.4711C121.05 22.8934 119.9 26.2538 117.602 28.5523C115.333 30.8508 112.176 32 108.132 32Z" fill="white"/>
<path d="M131.932 31.6509V1.10164H144.807C148.065 1.10164 150.931 1.74172 153.404 3.02188C155.906 4.30203 157.841 6.09135 159.209 8.38981C160.605 10.6883 161.303 13.3504 161.303 16.3763C161.303 19.4021 160.605 22.0642 159.209 24.3627C157.841 26.6612 155.906 28.4505 153.404 29.7306C150.931 31.0108 148.065 31.6509 144.807 31.6509H131.932ZM136.297 27.854H144.545C147.076 27.854 149.258 27.374 151.091 26.4139C152.953 25.4537 154.393 24.1154 155.412 22.3988C156.43 20.6531 156.939 18.6456 156.939 16.3763C156.939 14.0778 156.43 12.0703 155.412 10.3537C154.393 8.63711 152.953 7.29877 151.091 6.33865C149.258 5.37853 147.076 4.89847 144.545 4.89847H136.297V27.854Z" fill="white"/>
<path d="M169.924 31.6509V1.10164H181.838C184.514 1.10164 186.798 1.52351 188.689 2.36725C190.581 3.21099 192.035 4.43296 193.054 6.03316C194.072 7.63336 194.581 9.53905 194.581 11.7502C194.581 13.9614 194.072 15.8671 193.054 17.4673C192.035 19.0384 190.581 20.2458 188.689 21.0896C186.798 21.9333 184.514 22.3552 181.838 22.3552H172.324L174.288 20.3477V31.6509H169.924ZM190.348 31.6509L182.58 20.5659H187.249L195.105 31.6509H190.348ZM174.288 20.7841L172.324 18.6456H181.707C184.5 18.6456 186.609 18.0492 188.035 16.8563C189.49 15.6343 190.217 13.9323 190.217 11.7502C190.217 9.56814 189.49 7.88066 188.035 6.68778C186.609 5.49491 184.5 4.89847 181.707 4.89847H172.324L174.288 2.71638V20.7841Z" fill="white"/>
<path d="M203.567 31.6509V1.10164H207.932V31.6509H203.567Z" fill="white"/>
<path d="M232.804 32C230.476 32 228.309 31.6072 226.301 30.8217C224.323 30.0361 222.606 28.9451 221.152 27.5485C219.697 26.1229 218.562 24.4645 217.748 22.5734C216.933 20.6822 216.526 18.6165 216.526 16.3763C216.526 14.136 216.933 12.0703 217.748 10.1791C218.562 8.28798 219.697 6.64414 221.152 5.24761C222.606 3.82197 224.323 2.71638 226.301 1.93083C228.28 1.14528 230.447 0.752507 232.804 0.752507C235.132 0.752507 237.27 1.14528 239.219 1.93083C241.198 2.68729 242.914 3.77833 244.369 5.20396C245.853 6.6005 246.988 8.24434 247.773 10.1355C248.588 12.0266 248.995 14.1069 248.995 16.3763C248.995 18.6456 248.588 20.7259 247.773 22.617C246.988 24.5082 245.853 26.1666 244.369 27.5922C242.914 28.9887 241.198 30.0798 239.219 30.8653C237.27 31.6218 235.132 32 232.804 32ZM232.804 28.1159C234.491 28.1159 236.048 27.8249 237.474 27.243C238.928 26.6612 240.179 25.8465 241.227 24.7991C242.303 23.7226 243.132 22.4715 243.714 21.0459C244.325 19.6203 244.631 18.0637 244.631 16.3763C244.631 14.6888 244.325 13.1322 243.714 11.7066C243.132 10.281 242.303 9.04444 241.227 7.99704C240.179 6.92054 238.928 6.09135 237.474 5.50946C236.048 4.92757 234.491 4.63662 232.804 4.63662C231.087 4.63662 229.502 4.92757 228.047 5.50946C226.621 6.09135 225.37 6.92054 224.294 7.99704C223.217 9.04444 222.374 10.281 221.763 11.7066C221.181 13.1322 220.89 14.6888 220.89 16.3763C220.89 18.0637 221.181 19.6203 221.763 21.0459C222.374 22.4715 223.217 23.7226 224.294 24.7991C225.37 25.8465 226.621 26.6612 228.047 27.243C229.502 27.8249 231.087 28.1159 232.804 28.1159Z" fill="white"/>
<path d="M257.601 31.6509V1.10164H261.18L281.386 26.1956H279.509V1.10164H283.873V31.6509H280.295L260.089 6.55686H261.965V31.6509H257.601Z" fill="white"/>
</svg>
